<mxfile host="65bd71144e">
    <diagram id="I_KmOu4I3v8x4PC2eD0c" name="Page-1">
        <mxGraphModel dx="1556" dy="692" grid="1" gridSize="10" guides="1" tooltips="1" connect="1" arrows="1" fold="1" page="1" pageScale="1" pageWidth="1169" pageHeight="827" math="0" shadow="0">
            <root>
                <mxCell id="0"/>
                <mxCell id="1" parent="0"/>
                <mxCell id="2" value="" style="swimlane;startSize=0;fontSize=18;" vertex="1" parent="1">
                    <mxGeometry x="40" y="40" width="600" height="320" as="geometry"/>
                </mxCell>
                <mxCell id="4" value="Name" style="text;html=1;strokeColor=none;fillColor=none;align=center;verticalAlign=middle;whiteSpace=wrap;rounded=0;" vertex="1" parent="2">
                    <mxGeometry x="40" y="50" width="60" height="30" as="geometry"/>
                </mxCell>
                <mxCell id="6" value="Thing Directory" style="text;html=1;strokeColor=none;fillColor=none;align=center;verticalAlign=middle;whiteSpace=wrap;rounded=0;" vertex="1" parent="2">
                    <mxGeometry x="40" y="90" width="60" height="30" as="geometry"/>
                </mxCell>
                <mxCell id="8" value="Thing Function" style="text;html=1;strokeColor=none;fillColor=none;align=center;verticalAlign=middle;whiteSpace=wrap;rounded=0;" vertex="1" parent="2">
                    <mxGeometry x="40" y="170" width="60" height="30" as="geometry"/>
                </mxCell>
                <mxCell id="9" value="" style="swimlane;startSize=0;" vertex="1" parent="2">
                    <mxGeometry x="40" y="160" width="310" height="50" as="geometry"/>
                </mxCell>
                <mxCell id="20" value="Functions" style="rounded=1;whiteSpace=wrap;html=1;align=left;" vertex="1" parent="9">
                    <mxGeometry x="80" y="10" width="210" height="30" as="geometry"/>
                </mxCell>
                <mxCell id="23" value="" style="shape=flexArrow;endArrow=classic;html=1;entryX=0.905;entryY=1;entryDx=0;entryDy=0;entryPerimeter=0;" edge="1" parent="9" target="20">
                    <mxGeometry width="50" height="50" relative="1" as="geometry">
                        <mxPoint x="270" y="20" as="sourcePoint"/>
                        <mxPoint x="290" y="20" as="targetPoint"/>
                    </mxGeometry>
                </mxCell>
                <mxCell id="10" value="Output to msg.payload" style="text;html=1;strokeColor=none;fillColor=none;align=center;verticalAlign=middle;whiteSpace=wrap;rounded=0;" vertex="1" parent="2">
                    <mxGeometry x="40" y="250" width="60" height="30" as="geometry"/>
                </mxCell>
                <mxCell id="11" value="" style="rounded=1;whiteSpace=wrap;html=1;" vertex="1" parent="2">
                    <mxGeometry x="120" y="50" width="210" height="30" as="geometry"/>
                </mxCell>
                <mxCell id="19" value="Default URI" style="rounded=1;whiteSpace=wrap;html=1;align=left;" vertex="1" parent="2">
                    <mxGeometry x="120" y="90" width="210" height="30" as="geometry"/>
                </mxCell>
                <mxCell id="22" style="edgeStyle=none;html=1;entryX=1;entryY=0;entryDx=0;entryDy=0;" edge="1" parent="2" source="21" target="9">
                    <mxGeometry relative="1" as="geometry"/>
                </mxCell>
                <mxCell id="21" value="Once Directory found and functions fetched" style="text;html=1;strokeColor=none;fillColor=none;align=center;verticalAlign=middle;whiteSpace=wrap;rounded=0;" vertex="1" parent="2">
                    <mxGeometry x="420" y="160" width="120" height="30" as="geometry"/>
                </mxCell>
                <mxCell id="24" value="" style="whiteSpace=wrap;html=1;aspect=fixed;" vertex="1" parent="2">
                    <mxGeometry x="215" y="255" width="20" height="20" as="geometry"/>
                </mxCell>
            </root>
        </mxGraphModel>
    </diagram>
</mxfile>